<svg xmlns="http://www.w3.org/2000/svg" viewBox="0 0 1200 675" width="100%" height="100%">
  <defs>
    <linearGradient id="bg3" x1="0%" y1="0%" x2="100%" y2="100%">
      <stop offset="0%" stop-color="#111827"/>
      <stop offset="50%" stop-color="#1f192f"/>
      <stop offset="100%" stop-color="#311b42"/>
    </linearGradient>
    <linearGradient id="goldGrad" x1="0%" y1="0%" x2="100%" y2="0%">
      <stop offset="0%" stop-color="#f59e0b"/>
      <stop offset="100%" stop-color="#d97706"/>
    </linearGradient>
    <linearGradient id="purpleGrad" x1="0%" y1="0%" x2="100%" y2="0%">
      <stop offset="0%" stop-color="#6366f1"/>
      <stop offset="100%" stop-color="#a855f7"/>
    </linearGradient>
    <filter id="shadow3" x="-10%" y="-10%" width="120%" height="120%">
      <feDropShadow dx="0" dy="12" stdDeviation="16" flood-color="#000000" flood-opacity="0.6"/>
    </filter>
  </defs>

  <!-- Background -->
  <rect width="1200" height="675" rx="16" fill="url(#bg3)"/>

  <!-- Subtle Legal Grid -->
  <g stroke="#ffffff" stroke-opacity="0.04" stroke-width="1">
    <line x1="0" y1="135" x2="1200" y2="135"/>
    <line x1="0" y1="270" x2="1200" y2="270"/>
    <line x1="0" y1="405" x2="1200" y2="405"/>
    <line x1="0" y1="540" x2="1200" y2="540"/>
    <line x1="300" y1="0" x2="300" y2="675"/>
    <line x1="600" y1="0" x2="600" y2="675"/>
    <line x1="900" y1="0" x2="900" y2="675"/>
  </g>

  <!-- App Window Container -->
  <rect x="60" y="40" width="1080" height="595" rx="14" fill="#0f172a" stroke="#ffffff" stroke-opacity="0.1" stroke-width="1.5" filter="url(#shadow3)"/>

  <!-- App Header -->
  <path d="M 60 54 A 14 14 0 0 1 74 40 L 1126 40 A 14 14 0 0 1 1140 54 L 1140 90 L 60 90 Z" fill="#182238"/>
  <circle cx="90" cy="65" r="6" fill="#ef4444"/>
  <circle cx="110" cy="65" r="6" fill="#f59e0b"/>
  <circle cx="130" cy="65" r="6" fill="#10b981"/>

  <text x="160" y="70" fill="#ffffff" font-family="Segoe UI, sans-serif" font-size="16" font-weight="bold">⚖️ NYAYAVADI — AI LEGAL ASSISTANT (RAG &amp; SEMANTIC SEARCH)</text>
  <rect x="940" y="52" width="170" height="26" rx="13" fill="url(#goldGrad)"/>
  <text x="965" y="69" fill="#ffffff" font-family="Segoe UI, sans-serif" font-size="11" font-weight="bold">INDIAN LAW RAG</text>

  <!-- Search & Query Bar -->
  <rect x="100" y="115" width="1000" height="50" rx="12" fill="#1e293b" stroke="#6366f1" stroke-opacity="0.4"/>
  <text x="130" y="146" fill="#f8fafc" font-family="Segoe UI, sans-serif" font-size="14">🔍 "What are the key provisions of Section 420 IPC and relevant High Court precedents?"</text>
  <rect x="940" y="123" width="150" height="34" rx="8" fill="url(#purpleGrad)"/>
  <text x="965" y="145" fill="#ffffff" font-family="Segoe UI, sans-serif" font-size="12" font-weight="bold">Semantic Search</text>

  <!-- Main RAG Output Layout -->
  <!-- Left Side: Legal Citation & Grounded Answers -->
  <rect x="100" y="185" width="620" height="425" rx="10" fill="#182238" stroke="#ffffff" stroke-opacity="0.06"/>
  <text x="125" y="220" fill="#f59e0b" font-family="Segoe UI, sans-serif" font-size="15" font-weight="bold">📜 Context-Grounded Legal Synthesis</text>
  
  <rect x="125" y="240" width="570" height="150" rx="8" fill="#0f172a"/>
  <text x="145" y="268" fill="#cbd5e1" font-family="Segoe UI, sans-serif" font-size="13" font-weight="bold">Section 420 — Cheating and dishonestly inducing delivery of property</text>
  <text x="145" y="292" fill="#94a3b8" font-family="Segoe UI, sans-serif" font-size="12">Whoever cheats and thereby dishonestly induces the person deceived to deliver any property...</text>
  <text x="145" y="315" fill="#94a3b8" font-family="Segoe UI, sans-serif" font-size="12">shall be punished with imprisonment of either description for a term which may extend to 7 years.</text>

  <!-- Citation Cards -->
  <text x="125" y="420" fill="#818cf8" font-family="Segoe UI, sans-serif" font-size="14" font-weight="bold">🔗 Referenced Supreme Court Precedents (RAG Retrieved)</text>
  <rect x="125" y="435" width="270" height="70" rx="8" fill="#1e293b" stroke="#3b82f6" stroke-opacity="0.3"/>
  <text x="140" y="460" fill="#e2e8f0" font-family="Segoe UI, sans-serif" font-size="12" font-weight="600">State of UP v. Ramesh (2018)</text>
  <text x="140" y="480" fill="#94a3b8" font-family="Segoe UI, sans-serif" font-size="11">Similarity Score: 94.8%</text>

  <rect x="415" y="435" width="280" height="70" rx="8" fill="#1e293b" stroke="#3b82f6" stroke-opacity="0.3"/>
  <text x="430" y="460" fill="#e2e8f0" font-family="Segoe UI, sans-serif" font-size="12" font-weight="600">RK Anand v. Registrar HC (2009)</text>
  <text x="430" y="480" fill="#94a3b8" font-family="Segoe UI, sans-serif" font-size="11">Similarity Score: 91.2%</text>

  <rect x="125" y="520" width="570" height="70" rx="8" fill="#1e1b4b" stroke="#818cf8" stroke-opacity="0.3"/>
  <text x="145" y="545" fill="#a78bfa" font-family="Segoe UI, sans-serif" font-size="12" font-weight="600">⚡ LLM Hallucination Guardrail Active</text>
  <text x="145" y="565" fill="#cbd5e1" font-family="Segoe UI, sans-serif" font-size="11">Response strictly grounded in verified Indian Penal Code vector database embeddings.</text>

  <!-- Right Side: RAG Vector Knowledge Graph Visualizer -->
  <rect x="740" y="185" width="360" height="425" rx="10" fill="#182238" stroke="#ffffff" stroke-opacity="0.06"/>
  <text x="765" y="220" fill="#ffffff" font-family="Segoe UI, sans-serif" font-size="15" font-weight="bold">🕸️ Semantic Embeddings Graph</text>

  <!-- Nodes and Connections -->
  <g stroke="#6366f1" stroke-width="1.5" stroke-opacity="0.6">
    <line x1="920" y1="360" x2="840" y2="290"/>
    <line x1="920" y1="360" x2="1010" y2="300"/>
    <line x1="920" y1="360" x2="840" y2="440"/>
    <line x1="920" y1="360" x2="1010" y2="450"/>
    <line x1="840" y1="290" x2="1010" y2="300"/>
  </g>

  <!-- Central Query Node -->
  <circle cx="920" cy="360" r="32" fill="url(#purpleGrad)"/>
  <text x="900" y="365" fill="#ffffff" font-family="Segoe UI, sans-serif" font-size="11" font-weight="bold">QUERY</text>

  <!-- Satellite Document Nodes -->
  <circle cx="840" cy="290" r="22" fill="#f59e0b"/>
  <text x="825" y="294" fill="#ffffff" font-family="Segoe UI, sans-serif" font-size="9" font-weight="bold">IPC 420</text>

  <circle cx="1010" cy="300" r="22" fill="#3b82f6"/>
  <text x="995" y="304" fill="#ffffff" font-family="Segoe UI, sans-serif" font-size="9" font-weight="bold">BNS 318</text>

  <circle cx="840" cy="440" r="22" fill="#10b981"/>
  <text x="825" y="444" fill="#ffffff" font-family="Segoe UI, sans-serif" font-size="9" font-weight="bold">Case 1</text>

  <circle cx="1010" cy="450" r="22" fill="#ec4899"/>
  <text x="995" y="454" fill="#ffffff" font-family="Segoe UI, sans-serif" font-size="9" font-weight="bold">Case 2</text>

  <rect x="765" y="525" width="310" height="60" rx="8" fill="#0f172a"/>
  <text x="780" y="550" fill="#94a3b8" font-family="Segoe UI, sans-serif" font-size="11">Vector DB: FAISS / ChromaDB</text>
  <text x="780" y="570" fill="#34d399" font-family="Segoe UI, sans-serif" font-size="11">Retrieved 5 top document chunks in 84ms</text>
</svg>
